<mxfile host="app.diagrams.net" agent="Mozilla/5.0 (Windows NT 10.0; Win64; x64) AppleWebKit/537.36 (KHTML, like Gecko) Chrome/131.0.0.0 Safari/537.36" version="24.9.1">
  <diagram name="Page-1" id="Ctjg0No3zUCwtpp85kTk">
    <mxGraphModel dx="2303" dy="1258" grid="1" gridSize="10" guides="1" tooltips="1" connect="1" arrows="1" fold="1" page="1" pageScale="1" pageWidth="1654" pageHeight="2336" math="0" shadow="0">
      <root>
        <mxCell id="0" />
        <mxCell id="1" parent="0" />
        <mxCell id="KuUxCCZHSnEd986gLyKA-1" value="Student" style="swimlane;fontStyle=1;align=center;verticalAlign=top;childLayout=stackLayout;horizontal=1;startSize=26;horizontalStack=0;resizeParent=1;resizeParentMax=0;resizeLast=0;collapsible=1;marginBottom=0;whiteSpace=wrap;html=1;" parent="1" vertex="1">
          <mxGeometry x="250" y="600" width="330" height="600" as="geometry">
            <mxRectangle x="385" y="350" width="80" height="30" as="alternateBounds" />
          </mxGeometry>
        </mxCell>
        <mxCell id="KuUxCCZHSnEd986gLyKA-2" value="&lt;div&gt;- name: string&lt;/div&gt;&lt;div&gt;- surname: string&lt;/div&gt;&lt;div&gt;- patronymic: string&lt;/div&gt;&lt;div&gt;- phone: string&lt;/div&gt;&lt;div&gt;- telegram: string&lt;/div&gt;&lt;div&gt;- email: string&lt;/div&gt;&lt;div&gt;- birthdate: string&lt;/div&gt;" style="text;strokeColor=none;fillColor=none;align=left;verticalAlign=top;spacingLeft=4;spacingRight=4;overflow=hidden;rotatable=0;points=[[0,0.5],[1,0.5]];portConstraint=eastwest;whiteSpace=wrap;html=1;" parent="KuUxCCZHSnEd986gLyKA-1" vertex="1">
          <mxGeometry y="26" width="330" height="114" as="geometry" />
        </mxCell>
        <mxCell id="KuUxCCZHSnEd986gLyKA-3" value="" style="line;strokeWidth=1;fillColor=none;align=left;verticalAlign=middle;spacingTop=-1;spacingLeft=3;spacingRight=3;rotatable=0;labelPosition=right;points=[];portConstraint=eastwest;strokeColor=inherit;" parent="KuUxCCZHSnEd986gLyKA-1" vertex="1">
          <mxGeometry y="140" width="330" height="8" as="geometry" />
        </mxCell>
        <mxCell id="KuUxCCZHSnEd986gLyKA-4" value="&lt;div&gt;+Student(name, surname, patronymic: string, id: int,&amp;nbsp;&lt;/div&gt;&lt;div&gt;phone, email, telegram, github: string, birthdate: string): new&lt;/div&gt;&lt;div&gt;&lt;span style=&quot;background-color: initial;&quot;&gt;&lt;br&gt;&lt;/span&gt;&lt;/div&gt;&lt;div&gt;&lt;span style=&quot;background-color: initial;&quot;&gt;+name: string&lt;/span&gt;&lt;span style=&quot;background-color: initial; white-space: pre;&quot;&gt;&#x9;&lt;/span&gt;&lt;span style=&quot;background-color: initial; white-space: pre;&quot;&gt;&#x9;&lt;span style=&quot;white-space: pre;&quot;&gt;&#x9;&lt;/span&gt;&lt;span style=&quot;white-space: pre;&quot;&gt;&#x9;&#x9;&lt;/span&gt;&lt;/span&gt;&lt;span style=&quot;background-color: initial;&quot;&gt;get&lt;/span&gt;&lt;/div&gt;&lt;div&gt;-name=(name: string)&lt;span style=&quot;white-space: pre;&quot;&gt;&#x9;&lt;/span&gt;&lt;span style=&quot;white-space: pre;&quot;&gt;&#x9;&lt;span style=&quot;white-space: pre;&quot;&gt;&#x9;&lt;/span&gt;&lt;/span&gt;set&lt;/div&gt;&lt;div&gt;+surname: string&lt;span style=&quot;white-space: pre;&quot;&gt;&#x9;&lt;/span&gt;&lt;span style=&quot;white-space: pre;&quot;&gt;&#x9;&lt;/span&gt;&lt;span style=&quot;white-space: pre;&quot;&gt;&#x9;&lt;span style=&quot;white-space: pre;&quot;&gt;&#x9;&lt;/span&gt;&lt;/span&gt;get&lt;/div&gt;&lt;div&gt;-surname(surname: string)&lt;span style=&quot;white-space: pre;&quot;&gt;&#x9;&lt;span style=&quot;white-space: pre;&quot;&gt;&#x9;&lt;/span&gt;&lt;/span&gt;set&lt;/div&gt;&lt;div&gt;+patronymic: string&lt;span style=&quot;white-space: pre;&quot;&gt;&#x9;&lt;/span&gt;&lt;span style=&quot;white-space: pre;&quot;&gt;&#x9;&lt;/span&gt;&lt;span style=&quot;white-space: pre;&quot;&gt;&#x9;&lt;span style=&quot;white-space: pre;&quot;&gt;&#x9;&lt;/span&gt;&lt;/span&gt;get&lt;/div&gt;&lt;div&gt;-patronymic=(patronymic:string)&lt;span style=&quot;white-space: pre;&quot;&gt;&#x9;&lt;/span&gt;set&lt;/div&gt;&lt;div&gt;+phone: string&lt;span style=&quot;white-space: pre;&quot;&gt;&#x9;&lt;/span&gt;&lt;span style=&quot;white-space: pre;&quot;&gt;&#x9;&lt;/span&gt;&lt;span style=&quot;white-space: pre;&quot;&gt;&#x9;&lt;/span&gt;&lt;span style=&quot;white-space: pre;&quot;&gt;&#x9;&lt;/span&gt;&lt;span style=&quot;white-space: pre;&quot;&gt;&#x9;&lt;/span&gt;get&lt;/div&gt;&lt;div&gt;-phone=(phone: string)&lt;span style=&quot;white-space: pre;&quot;&gt;&#x9;&lt;/span&gt;&lt;span style=&quot;white-space: pre;&quot;&gt;&#x9;&lt;/span&gt;&lt;span style=&quot;white-space: pre;&quot;&gt;&#x9;&lt;/span&gt;set&lt;/div&gt;&lt;div&gt;+telegram(telegram: string)&lt;span style=&quot;white-space: pre;&quot;&gt;&#x9;&lt;/span&gt;&lt;span style=&quot;white-space: pre;&quot;&gt;&#x9;&lt;/span&gt;get&lt;/div&gt;&lt;div&gt;-telegram=(telegram: string)&lt;span style=&quot;white-space: pre;&quot;&gt;&#x9;&lt;/span&gt;&lt;span style=&quot;white-space: pre;&quot;&gt;&#x9;&lt;/span&gt;set&lt;/div&gt;&lt;div&gt;+email: string&lt;span style=&quot;white-space: pre;&quot;&gt;&#x9;&lt;/span&gt;&lt;span style=&quot;white-space: pre;&quot;&gt;&#x9;&lt;/span&gt;&lt;span style=&quot;white-space: pre;&quot;&gt;&#x9;&lt;/span&gt;&lt;span style=&quot;white-space: pre;&quot;&gt;&#x9;&lt;/span&gt;&lt;span style=&quot;white-space: pre;&quot;&gt;&#x9;&lt;/span&gt;get&lt;/div&gt;&lt;div&gt;-email=(email: string)&lt;span style=&quot;white-space: pre;&quot;&gt;&#x9;&lt;/span&gt;&lt;span style=&quot;white-space: pre;&quot;&gt;&#x9;&lt;/span&gt;&lt;span style=&quot;white-space: pre;&quot;&gt;&#x9;&lt;/span&gt;set&lt;/div&gt;&lt;div&gt;+birthdate: string&lt;span style=&quot;white-space: pre;&quot;&gt;&#x9;&lt;/span&gt;&lt;span style=&quot;white-space: pre;&quot;&gt;&#x9;&lt;/span&gt;&lt;span style=&quot;white-space: pre;&quot;&gt;&#x9;&lt;/span&gt;&lt;span style=&quot;white-space: pre;&quot;&gt;&#x9;&lt;/span&gt;get&lt;/div&gt;&lt;div&gt;-birthdate=(birthdate: string)&lt;span style=&quot;white-space: pre;&quot;&gt;&#x9;&lt;/span&gt;&lt;span style=&quot;white-space: pre;&quot;&gt;&#x9;&lt;/span&gt;set&lt;/div&gt;&lt;div&gt;&lt;br&gt;&lt;/div&gt;&lt;div&gt;&lt;u&gt;+is_name_valid?(name_string: string): boolean&lt;/u&gt;&lt;/div&gt;&lt;div&gt;&lt;div&gt;&lt;div&gt;&lt;u&gt;+is_telegram_valid?(telegram_tag:string): boolean&lt;/u&gt;&lt;/div&gt;&lt;div&gt;&lt;u&gt;+is_email_valid?(email_address: string): boolean&lt;/u&gt;&lt;/div&gt;&lt;div&gt;&lt;u style=&quot;background-color: initial;&quot;&gt;+is_phone_valid?(phone_number: string): boolean&lt;/u&gt;&lt;/div&gt;&lt;/div&gt;&lt;/div&gt;&lt;div&gt;+to_s(): string&lt;/div&gt;&lt;div&gt;+set_contacts(phone, telegram, email: string)&lt;/div&gt;&lt;div&gt;+get_initials(): string&lt;/div&gt;&lt;div&gt;+get_git(): string&lt;/div&gt;&lt;div&gt;&lt;span style=&quot;background-color: initial;&quot;&gt;+get_info(): string&lt;/span&gt;&lt;br&gt;&lt;/div&gt;&lt;div&gt;&lt;span style=&quot;background-color: initial;&quot;&gt;+&amp;lt;=&amp;gt;(other): int&lt;/span&gt;&lt;/div&gt;" style="text;strokeColor=none;fillColor=none;align=left;verticalAlign=top;spacingLeft=4;spacingRight=4;overflow=hidden;rotatable=0;points=[[0,0.5],[1,0.5]];portConstraint=eastwest;whiteSpace=wrap;html=1;" parent="KuUxCCZHSnEd986gLyKA-1" vertex="1">
          <mxGeometry y="148" width="330" height="452" as="geometry" />
        </mxCell>
        <mxCell id="AG0WjQAsVARgPapO6NZo-1" value="Student_short" style="swimlane;fontStyle=1;align=center;verticalAlign=top;childLayout=stackLayout;horizontal=1;startSize=26;horizontalStack=0;resizeParent=1;resizeParentMax=0;resizeLast=0;collapsible=1;marginBottom=0;whiteSpace=wrap;html=1;" parent="1" vertex="1">
          <mxGeometry x="740" y="600" width="380" height="340" as="geometry" />
        </mxCell>
        <mxCell id="AG0WjQAsVARgPapO6NZo-2" value="&lt;div&gt;- fullname: string&lt;/div&gt;&lt;div&gt;&lt;span style=&quot;background-color: initial;&quot;&gt;- contact: string&lt;/span&gt;&lt;br&gt;&lt;/div&gt;" style="text;strokeColor=none;fillColor=none;align=left;verticalAlign=top;spacingLeft=4;spacingRight=4;overflow=hidden;rotatable=0;points=[[0,0.5],[1,0.5]];portConstraint=eastwest;whiteSpace=wrap;html=1;" parent="AG0WjQAsVARgPapO6NZo-1" vertex="1">
          <mxGeometry y="26" width="380" height="74" as="geometry" />
        </mxCell>
        <mxCell id="AG0WjQAsVARgPapO6NZo-3" value="" style="line;strokeWidth=1;fillColor=none;align=left;verticalAlign=middle;spacingTop=-1;spacingLeft=3;spacingRight=3;rotatable=0;labelPosition=right;points=[];portConstraint=eastwest;strokeColor=inherit;" parent="AG0WjQAsVARgPapO6NZo-1" vertex="1">
          <mxGeometry y="100" width="380" height="8" as="geometry" />
        </mxCell>
        <mxCell id="AG0WjQAsVARgPapO6NZo-4" value="&lt;div&gt;&lt;span style=&quot;background-color: initial;&quot;&gt;+Student_short(id: int, fullname: string, github: string, contact: string): new&lt;/span&gt;&lt;/div&gt;&lt;div&gt;&lt;u&gt;+new_from_student(student: Student)&lt;/u&gt;&lt;/div&gt;&lt;div&gt;&lt;u&gt;+new_from_id_string(id:int, student_string: string)&lt;/u&gt;&lt;/div&gt;&lt;div&gt;&lt;u&gt;+parse_student_string(student_string: string): hash&lt;/u&gt;&lt;/div&gt;&lt;div&gt;&lt;br&gt;&lt;/div&gt;&lt;div&gt;+fullname: string&lt;span style=&quot;white-space: pre;&quot;&gt;&#x9;&lt;span style=&quot;white-space: pre;&quot;&gt;&#x9;&lt;span style=&quot;white-space: pre;&quot;&gt;&#x9;&lt;/span&gt;&lt;span style=&quot;white-space: pre;&quot;&gt;&#x9;&lt;/span&gt;&lt;/span&gt;&lt;/span&gt;get&lt;/div&gt;&lt;div&gt;-fullname=(fullname: string)&lt;span style=&quot;white-space: pre;&quot;&gt;&#x9;&lt;/span&gt;&lt;span style=&quot;white-space: pre;&quot;&gt;&#x9;&lt;/span&gt;set&lt;/div&gt;&lt;div&gt;&lt;div&gt;+contact: string&lt;span style=&quot;white-space: pre;&quot;&gt;&#x9;&lt;/span&gt;&lt;span style=&quot;white-space: pre;&quot;&gt;&#x9;&lt;/span&gt;&lt;span style=&quot;white-space: pre;&quot;&gt;&#x9;&lt;/span&gt;&lt;span style=&quot;white-space: pre;&quot;&gt;&#x9;&lt;/span&gt;get&lt;/div&gt;&lt;div&gt;-contact=(contact: string)&lt;span style=&quot;white-space: pre;&quot;&gt;&#x9;&lt;/span&gt;&lt;span style=&quot;white-space: pre;&quot;&gt;&#x9;&lt;/span&gt;set&lt;/div&gt;&lt;/div&gt;&lt;div&gt;&lt;br&gt;&lt;/div&gt;&lt;div&gt;&lt;u style=&quot;background-color: initial;&quot;&gt;-is_fullname_valid?(name_string: string): boolean&lt;/u&gt;&lt;br&gt;&lt;/div&gt;&lt;div&gt;&lt;div&gt;&lt;span style=&quot;background-color: initial;&quot;&gt;+to_s(): string&lt;/span&gt;&lt;/div&gt;&lt;/div&gt;&lt;div&gt;&lt;span style=&quot;background-color: initial;&quot;&gt;+&amp;lt;=&amp;gt; (other): int&lt;/span&gt;&lt;/div&gt;" style="text;strokeColor=none;fillColor=none;align=left;verticalAlign=top;spacingLeft=4;spacingRight=4;overflow=hidden;rotatable=0;points=[[0,0.5],[1,0.5]];portConstraint=eastwest;whiteSpace=wrap;html=1;" parent="AG0WjQAsVARgPapO6NZo-1" vertex="1">
          <mxGeometry y="108" width="380" height="232" as="geometry" />
        </mxCell>
        <mxCell id="AG0WjQAsVARgPapO6NZo-15" value="Person" style="swimlane;fontStyle=1;align=center;verticalAlign=top;childLayout=stackLayout;horizontal=1;startSize=30;horizontalStack=0;resizeParent=1;resizeParentMax=0;resizeLast=0;collapsible=1;marginBottom=0;whiteSpace=wrap;html=1;" parent="1" vertex="1">
          <mxGeometry x="487" y="240" width="340" height="270" as="geometry" />
        </mxCell>
        <mxCell id="AG0WjQAsVARgPapO6NZo-16" value="-id: int&lt;div&gt;-github: string&lt;/div&gt;" style="text;strokeColor=none;fillColor=none;align=left;verticalAlign=top;spacingLeft=4;spacingRight=4;overflow=hidden;rotatable=0;points=[[0,0.5],[1,0.5]];portConstraint=eastwest;whiteSpace=wrap;html=1;" parent="AG0WjQAsVARgPapO6NZo-15" vertex="1">
          <mxGeometry y="30" width="340" height="60" as="geometry" />
        </mxCell>
        <mxCell id="AG0WjQAsVARgPapO6NZo-17" value="" style="line;strokeWidth=1;fillColor=none;align=left;verticalAlign=middle;spacingTop=-1;spacingLeft=3;spacingRight=3;rotatable=0;labelPosition=right;points=[];portConstraint=eastwest;strokeColor=inherit;" parent="AG0WjQAsVARgPapO6NZo-15" vertex="1">
          <mxGeometry y="90" width="340" height="8" as="geometry" />
        </mxCell>
        <mxCell id="AG0WjQAsVARgPapO6NZo-18" value="&lt;div&gt;+id(id: int)&lt;span style=&quot;white-space: pre;&quot;&gt;&#x9;&lt;/span&gt;&lt;span style=&quot;white-space: pre;&quot;&gt;&#x9;&lt;/span&gt;&lt;span style=&quot;white-space: pre;&quot;&gt;&#x9;&lt;span style=&quot;white-space: pre;&quot;&gt;&#x9;&lt;span style=&quot;white-space: pre;&quot;&gt;&#x9;&lt;/span&gt;&lt;/span&gt;get&lt;/span&gt;&lt;/div&gt;&lt;div&gt;-id=(id: int)&lt;span style=&quot;white-space: pre;&quot;&gt;&#x9;&lt;/span&gt;&lt;span style=&quot;white-space: pre;&quot;&gt;&#x9;&lt;/span&gt;&lt;span style=&quot;white-space: pre;&quot;&gt;&#x9;&lt;/span&gt;&lt;span style=&quot;white-space: pre;&quot;&gt;&#x9;&lt;/span&gt;&lt;span style=&quot;white-space: pre;&quot;&gt;&#x9;&lt;/span&gt;set&lt;span style=&quot;white-space: pre;&quot;&gt;&#x9;&lt;/span&gt;&lt;span style=&quot;white-space: pre;&quot;&gt;&#x9;&lt;/span&gt;&lt;span style=&quot;white-space: pre;&quot;&gt;&#x9;&lt;/span&gt;&lt;span style=&quot;white-space: pre;&quot;&gt;&#x9;&lt;/span&gt;&lt;/div&gt;&lt;div&gt;&lt;div&gt;+github: string&lt;span style=&quot;white-space: pre;&quot;&gt;&#x9;&lt;/span&gt;&lt;span style=&quot;white-space: pre;&quot;&gt;&#x9;&lt;/span&gt;&lt;span style=&quot;white-space: pre;&quot;&gt;&#x9;&lt;/span&gt;&lt;span style=&quot;white-space: pre;&quot;&gt;&#x9;&lt;/span&gt;&lt;span style=&quot;white-space: pre;&quot;&gt;&#x9;&lt;/span&gt;get&lt;/div&gt;&lt;div&gt;-github=(github: string)&lt;span style=&quot;white-space: pre;&quot;&gt;&#x9;&lt;/span&gt;&lt;span style=&quot;white-space: pre;&quot;&gt;&#x9;&lt;/span&gt;&lt;span style=&quot;white-space: pre;&quot;&gt;&#x9;&lt;/span&gt;set&lt;/div&gt;&lt;/div&gt;&lt;div&gt;&lt;br&gt;&lt;/div&gt;&lt;div&gt;&lt;div&gt;&lt;div&gt;&lt;div&gt;+get_contact()&lt;/div&gt;&lt;/div&gt;&lt;/div&gt;&lt;div&gt;&lt;div&gt;-git_stated?(): boolean&lt;/div&gt;&lt;div&gt;-contacts_stated?(): boolean&lt;/div&gt;&lt;div&gt;+validate?(): boolean&lt;/div&gt;&lt;/div&gt;&lt;div&gt;+&lt;u&gt;is_github_valid&lt;/u&gt;?(github_url: string): boolean&lt;/div&gt;&lt;div&gt;&lt;/div&gt;&lt;/div&gt;" style="text;strokeColor=none;fillColor=none;align=left;verticalAlign=top;spacingLeft=4;spacingRight=4;overflow=hidden;rotatable=0;points=[[0,0.5],[1,0.5]];portConstraint=eastwest;whiteSpace=wrap;html=1;" parent="AG0WjQAsVARgPapO6NZo-15" vertex="1">
          <mxGeometry y="98" width="340" height="172" as="geometry" />
        </mxCell>
        <mxCell id="yhVLueEcTePNYkWDDuFC-2" value="" style="triangle;whiteSpace=wrap;html=1;rotation=-90;" parent="1" vertex="1">
          <mxGeometry x="650" y="510" width="30" height="30" as="geometry" />
        </mxCell>
        <mxCell id="yhVLueEcTePNYkWDDuFC-4" value="" style="edgeStyle=elbowEdgeStyle;elbow=vertical;endArrow=none;html=1;curved=0;rounded=0;entryX=0;entryY=0.5;entryDx=0;entryDy=0;endFill=0;" parent="1" source="KuUxCCZHSnEd986gLyKA-1" target="yhVLueEcTePNYkWDDuFC-2" edge="1">
          <mxGeometry width="50" height="50" relative="1" as="geometry">
            <mxPoint x="320" y="620" as="sourcePoint" />
            <mxPoint x="370" y="570" as="targetPoint" />
          </mxGeometry>
        </mxCell>
        <mxCell id="yhVLueEcTePNYkWDDuFC-8" value="" style="edgeStyle=elbowEdgeStyle;elbow=vertical;endArrow=none;html=1;curved=0;rounded=0;endSize=8;startSize=8;endFill=0;" parent="1" source="AG0WjQAsVARgPapO6NZo-1" edge="1" target="yhVLueEcTePNYkWDDuFC-2">
          <mxGeometry width="50" height="50" relative="1" as="geometry">
            <mxPoint x="960" y="540" as="sourcePoint" />
            <mxPoint x="650" y="540" as="targetPoint" />
          </mxGeometry>
        </mxCell>
        <mxCell id="wCUWvUSuaf720DD5pEuR-1" value="DataTable" style="swimlane;fontStyle=1;align=center;verticalAlign=top;childLayout=stackLayout;horizontal=1;startSize=26;horizontalStack=0;resizeParent=1;resizeParentMax=0;resizeLast=0;collapsible=1;marginBottom=0;whiteSpace=wrap;html=1;" vertex="1" parent="1">
          <mxGeometry x="817" y="1360" width="260" height="140" as="geometry" />
        </mxCell>
        <mxCell id="wCUWvUSuaf720DD5pEuR-2" value="- data_table: 2d_array" style="text;strokeColor=none;fillColor=none;align=left;verticalAlign=top;spacingLeft=4;spacingRight=4;overflow=hidden;rotatable=0;points=[[0,0.5],[1,0.5]];portConstraint=eastwest;whiteSpace=wrap;html=1;" vertex="1" parent="wCUWvUSuaf720DD5pEuR-1">
          <mxGeometry y="26" width="260" height="24" as="geometry" />
        </mxCell>
        <mxCell id="wCUWvUSuaf720DD5pEuR-3" value="" style="line;strokeWidth=1;fillColor=none;align=left;verticalAlign=middle;spacingTop=-1;spacingLeft=3;spacingRight=3;rotatable=0;labelPosition=right;points=[];portConstraint=eastwest;strokeColor=inherit;" vertex="1" parent="wCUWvUSuaf720DD5pEuR-1">
          <mxGeometry y="50" width="260" height="8" as="geometry" />
        </mxCell>
        <mxCell id="wCUWvUSuaf720DD5pEuR-4" value="+DataTable(table: 2d_array): new&lt;div&gt;+get_element(log_ix, column_ix: int): element&lt;/div&gt;&lt;div&gt;+get_logs_count(): int&lt;/div&gt;&lt;div&gt;+get_columns_count: int&lt;/div&gt;&lt;div&gt;+to_s()&lt;/div&gt;" style="text;strokeColor=none;fillColor=none;align=left;verticalAlign=top;spacingLeft=4;spacingRight=4;overflow=hidden;rotatable=0;points=[[0,0.5],[1,0.5]];portConstraint=eastwest;whiteSpace=wrap;html=1;" vertex="1" parent="wCUWvUSuaf720DD5pEuR-1">
          <mxGeometry y="58" width="260" height="82" as="geometry" />
        </mxCell>
        <mxCell id="wCUWvUSuaf720DD5pEuR-17" style="edgeStyle=orthogonalEdgeStyle;rounded=0;orthogonalLoop=1;jettySize=auto;html=1;strokeWidth=2;dashed=1;endArrow=open;endFill=0;" edge="1" parent="1" source="wCUWvUSuaf720DD5pEuR-5" target="wCUWvUSuaf720DD5pEuR-1">
          <mxGeometry relative="1" as="geometry" />
        </mxCell>
        <mxCell id="wCUWvUSuaf720DD5pEuR-18" value="&lt;font style=&quot;font-size: 16px;&quot;&gt;&quot;use&quot;&lt;/font&gt;" style="edgeLabel;html=1;align=center;verticalAlign=middle;resizable=0;points=[];" vertex="1" connectable="0" parent="wCUWvUSuaf720DD5pEuR-17">
          <mxGeometry x="-0.0491" y="-1" relative="1" as="geometry">
            <mxPoint as="offset" />
          </mxGeometry>
        </mxCell>
        <mxCell id="wCUWvUSuaf720DD5pEuR-5" value="DataList" style="swimlane;fontStyle=1;align=center;verticalAlign=top;childLayout=stackLayout;horizontal=1;startSize=26;horizontalStack=0;resizeParent=1;resizeParentMax=0;resizeLast=0;collapsible=1;marginBottom=0;whiteSpace=wrap;html=1;" vertex="1" parent="1">
          <mxGeometry x="827" y="1010" width="240" height="210" as="geometry" />
        </mxCell>
        <mxCell id="wCUWvUSuaf720DD5pEuR-6" value="-array: array" style="text;strokeColor=none;fillColor=none;align=left;verticalAlign=top;spacingLeft=4;spacingRight=4;overflow=hidden;rotatable=0;points=[[0,0.5],[1,0.5]];portConstraint=eastwest;whiteSpace=wrap;html=1;" vertex="1" parent="wCUWvUSuaf720DD5pEuR-5">
          <mxGeometry y="26" width="240" height="24" as="geometry" />
        </mxCell>
        <mxCell id="wCUWvUSuaf720DD5pEuR-7" value="" style="line;strokeWidth=1;fillColor=none;align=left;verticalAlign=middle;spacingTop=-1;spacingLeft=3;spacingRight=3;rotatable=0;labelPosition=right;points=[];portConstraint=eastwest;strokeColor=inherit;" vertex="1" parent="wCUWvUSuaf720DD5pEuR-5">
          <mxGeometry y="50" width="240" height="8" as="geometry" />
        </mxCell>
        <mxCell id="wCUWvUSuaf720DD5pEuR-8" value="+DataList(arr: array): new&lt;div&gt;&lt;div&gt;+select(number): element&lt;/div&gt;&lt;div&gt;+get_selected(a, b: int): array&lt;/div&gt;&lt;div&gt;+get_names()&lt;/div&gt;&lt;div&gt;+preprocess_data(table)&lt;/div&gt;&lt;div&gt;+get_data(): DataTable&lt;/div&gt;&lt;div&gt;+set_list(new_list: array)&lt;/div&gt;&lt;/div&gt;&lt;div&gt;+to_s()&lt;/div&gt;" style="text;strokeColor=none;fillColor=none;align=left;verticalAlign=top;spacingLeft=4;spacingRight=4;overflow=hidden;rotatable=0;points=[[0,0.5],[1,0.5]];portConstraint=eastwest;whiteSpace=wrap;html=1;" vertex="1" parent="wCUWvUSuaf720DD5pEuR-5">
          <mxGeometry y="58" width="240" height="152" as="geometry" />
        </mxCell>
        <mxCell id="wCUWvUSuaf720DD5pEuR-15" style="edgeStyle=orthogonalEdgeStyle;rounded=0;orthogonalLoop=1;jettySize=auto;html=1;endArrow=none;endFill=0;" edge="1" parent="1" source="wCUWvUSuaf720DD5pEuR-9" target="wCUWvUSuaf720DD5pEuR-13">
          <mxGeometry relative="1" as="geometry">
            <mxPoint x="1000" y="1360" as="targetPoint" />
          </mxGeometry>
        </mxCell>
        <mxCell id="wCUWvUSuaf720DD5pEuR-9" value="DataList_student_short" style="swimlane;fontStyle=1;align=center;verticalAlign=top;childLayout=stackLayout;horizontal=1;startSize=26;horizontalStack=0;resizeParent=1;resizeParentMax=0;resizeLast=0;collapsible=1;marginBottom=0;whiteSpace=wrap;html=1;" vertex="1" parent="1">
          <mxGeometry x="1260" y="1060" width="200" height="70" as="geometry" />
        </mxCell>
        <mxCell id="wCUWvUSuaf720DD5pEuR-11" value="" style="line;strokeWidth=1;fillColor=none;align=left;verticalAlign=middle;spacingTop=-1;spacingLeft=3;spacingRight=3;rotatable=0;labelPosition=right;points=[];portConstraint=eastwest;strokeColor=inherit;" vertex="1" parent="wCUWvUSuaf720DD5pEuR-9">
          <mxGeometry y="26" width="200" height="8" as="geometry" />
        </mxCell>
        <mxCell id="wCUWvUSuaf720DD5pEuR-12" value="+get_names()&lt;div&gt;-preprocess_data(table)&lt;/div&gt;" style="text;strokeColor=none;fillColor=none;align=left;verticalAlign=top;spacingLeft=4;spacingRight=4;overflow=hidden;rotatable=0;points=[[0,0.5],[1,0.5]];portConstraint=eastwest;whiteSpace=wrap;html=1;" vertex="1" parent="wCUWvUSuaf720DD5pEuR-9">
          <mxGeometry y="34" width="200" height="36" as="geometry" />
        </mxCell>
        <mxCell id="wCUWvUSuaf720DD5pEuR-13" value="" style="triangle;whiteSpace=wrap;html=1;rotation=-180;" vertex="1" parent="1">
          <mxGeometry x="1067" y="1080" width="30" height="30" as="geometry" />
        </mxCell>
        <mxCell id="wCUWvUSuaf720DD5pEuR-19" style="edgeStyle=orthogonalEdgeStyle;rounded=0;orthogonalLoop=1;jettySize=auto;html=1;entryX=1.007;entryY=0.131;entryDx=0;entryDy=0;entryPerimeter=0;strokeWidth=2;endArrow=open;endFill=0;dashed=1;" edge="1" parent="1" source="wCUWvUSuaf720DD5pEuR-9" target="AG0WjQAsVARgPapO6NZo-4">
          <mxGeometry relative="1" as="geometry" />
        </mxCell>
        <mxCell id="wCUWvUSuaf720DD5pEuR-20" value="&lt;font style=&quot;font-size: 16px;&quot;&gt;&quot;use&quot;&lt;/font&gt;" style="edgeLabel;html=1;align=center;verticalAlign=middle;resizable=0;points=[];" vertex="1" connectable="0" parent="wCUWvUSuaf720DD5pEuR-19">
          <mxGeometry x="-0.2123" relative="1" as="geometry">
            <mxPoint as="offset" />
          </mxGeometry>
        </mxCell>
      </root>
    </mxGraphModel>
  </diagram>
</mxfile>
